<?xml version="1.0" encoding="iso-8859-1"?>
<!-- Generator: Adobe Illustrator 16.0.0, SVG Export Plug-In . SVG Version: 6.00 Build 0)  -->
<!DOCTYPE svg PUBLIC "-//W3C//DTD SVG 1.1//EN" "http://www.w3.org/Graphics/SVG/1.1/DTD/svg11.dtd">
<svg version="1.1" id="Layer_1" xmlns="http://www.w3.org/2000/svg" xmlns:xlink="http://www.w3.org/1999/xlink" x="0px" y="0px"
	 width="960px" height="560px" viewBox="0 0 960 560" style="enable-background:new 0 0 960 560;" xml:space="preserve">
<path style="fill:none;stroke:#FFFFFF;stroke-width:10;stroke-linecap:round;stroke-linejoin:round;stroke-miterlimit:10;" d="
	M240.891,197.75c-20.127,5.243-25.672,10.656-29.087,13.634c-3.833,3.342-6.384,11.821-2.666,15.97s8.772,2.938,14.362-0.429
	c9.604-5.786,5.898-3.782,17.391-7.176c8.116-2.396,15.833-2.304,22.726-0.289c2.095,0.613,4.112,1.402,6.042,2.354
	c14.138,6.969,23.551,22.611,23.551,40.681c0,13.771-5.573,27.776-15.694,39.436c-10.123,11.664-23.414,19.446-37.424,21.916
	c-14.008,2.471-27.783-0.544-37.909-8.645C192.06,307.104,186,295.146,186,281.373V173.6c0-6.075-4.925-10.131-11-9.06
	s-11,6.864-11,12.939v107.772c0,19.748,8.415,36.883,22.812,48.402c14.26,11.408,33.25,15.726,53.036,12.236
	c19.784-3.488,38.654-14.475,52.911-30.901c14.399-16.59,22.39-36.612,22.39-56.362C315.148,217.84,281.726,187.113,240.891,197.75z
	"/>
<path style="fill:none;stroke:#FFFFFF;stroke-width:10;stroke-linecap:round;stroke-linejoin:round;stroke-miterlimit:10;" d="
	M778.994,215.744c-4.207-3.64-11.171-2.553-15.554,2.425c-9.7,11.022-23.055,18.506-36.721,20.916
	c-28.802,5.079-52.72-14.058-52.72-42.761v-24.355c1-0.146,1.633,0.296,1.971,0.236l52-9.169c6.075-1.071,11-6.865,11-12.939
	c0-6.075-4.925-10.132-11-9.061l-52,9.169c-0.338,0.06-0.971-0.359-1.971-0.153v-16.5c0-6.075-4.925-10.131-11-9.061
	c-6.075,1.071-11,6.865-11,12.94v62.771c0,40.834,33.787,68.1,74.72,60.882c19.374-3.416,37.896-13.989,51.714-29.689
	C782.816,226.416,783.201,219.384,778.994,215.744z"/>
<path style="fill:none;stroke:#FFFFFF;stroke-width:10;stroke-linecap:round;stroke-linejoin:round;stroke-miterlimit:10;" d="
	M564.82,141.58c-40.988,7.227-74.82,46.387-74.82,87.189v126.229c0,6.074,4.925,10.131,11,9.061c6.075-1.072,11-6.866,11-12.94
	V224.89c0-28.672,23.963-56.222,52.82-61.31c28.789-5.076,52.453,14.08,52.453,42.753c0,28.678-23.212,56.101-51.893,61.158
	c-10.112,1.783-18.07,3.637-18.07,3.637c-7.522,1.392-10.949,2.335-14.402,7.292c-3.452,4.957-3.111,11.139,0.781,14.412
	l59.771,51.518c4.259,3.582,11.227,2.416,15.559-2.607c4.333-5.022,4.396-11.998,0.138-15.58l-43.626-36.697
	c40.799-7.21,73.741-46.212,73.741-87.011C639.272,161.649,605.74,134.364,564.82,141.58z"/>
<path style="fill:none;stroke:#FFFFFF;stroke-width:10;stroke-linecap:round;stroke-linejoin:round;stroke-miterlimit:10;" d="
	M402.8,170.159c-40.699,7.177-73.568,46.174-73.568,86.985c0,40.821,33.293,68.159,74.068,60.969
	c16.271-2.869,26.392-6.982,34.643-16.066c4.461-4.91,5.816-11.598,2.144-15.789c-3.674-4.192-10.333-3.648-15.397,0.602
	c-6.138,5.15-9.847,7.219-21.276,9.234c-28.644,5.051-51.942-14.182-51.942-42.871c0-28.68,22.759-56.026,51.327-61.063
	C431.297,187.134,454,206.451,454,235.117v63.229c0,6.074,4.925,10.131,11,9.061c6.075-1.072,11-6.866,11-12.94v-63.229
	C476,190.441,443.43,162.995,402.8,170.159z"/>
</svg>
