<svg version="1.1" id="Layer_1" xmlns="http://www.w3.org/2000/svg" xmlns:xlink="http://www.w3.org/1999/xlink" x="0px" y="0px"
     width="960px" height="560px" viewBox="0 0 960 560" style="enable-background:new 0 0 960 560;" xml:space="preserve">
<g id="bart-svg">
	<path id="bart-b" class="bart bart-b" style="fill:#DC1F26;" d="M247.091,262.39C225.63,268.14,206,282.736,193,301.238v-60.355c0-4.971-4.029-7.92-9-6.588
		c-4.971,1.332-9,6.441-9,11.412v108c0,39.701,32.321,63.34,72.052,52.693c39.731-10.646,72.055-51.605,72.055-91.307
		C319.106,275.392,286.801,251.75,247.091,262.39z M247.052,388.4C217.246,396.387,193,378.66,193,348.883v-4.037
		c0-0.566,0.302-1.239,0.368-1.871c2.932-28.258,26.026-55.164,53.722-62.584c29.783-7.98,54.016,9.75,54.016,39.526
		C301.105,349.693,276.857,380.414,247.052,388.4z"/>
	<path id="bart-a" class="bart bart-a" style="fill:#DC1F26;" d="M408.125,219.241c-39.701,10.638-72,51.591-72,91.292s32.299,63.346,72,52.709
		c21.421-5.74,40.675-20.314,53.875-38.745v15.309c0,4.971,4.029,7.921,9,6.589s9-6.441,9-11.412v-58.893
		c0.077-1.381,0.125-2.762,0.125-4.141C480.125,232.248,447.826,208.603,408.125,219.241z M462,276.805v3.49
		c-1.807,28.636-25.273,57.283-53.875,64.947c-29.775,7.978-54-9.756-54-39.531c0-29.776,24.225-60.492,54-68.47
		c29.363-7.868,53.311,9.278,53.969,38.309C462.038,275.968,462,276.386,462,276.805z"/>
	<path id="bart-r" class="bart bart-r" style="fill:#DC1F26;" d="M642.125,228.541c0-39.701-32.299-63.345-72-52.707c-39.124,10.483-71.036,50.406-71.956,89.56
		c-0.108,0.587-0.169,1.177-0.169,1.766V393.16c0,4.971,4.029,7.92,9,6.588s9-6.441,9-11.412v-78.598
		c0.247,0.217,0.485,0.443,0.737,0.654c0.438,1.016,1.109,1.898,2.023,2.567l81,59.296c1.758,1.287,4.061,1.549,6.364,0.932
		s4.606-2.113,6.364-4.342c3.515-4.455,3.515-10.154,0-12.729l-47.867-35.041c1.818-0.35,3.649-0.746,5.503-1.242
		C609.826,309.195,642.125,268.243,642.125,228.541z M516.125,262.302c0-29.775,24.225-60.491,54-68.469
		c29.775-7.979,54,9.755,54,39.53c0,29.776-24.225,60.492-54,68.47S516.125,292.078,516.125,262.302z"/>
	<path id="bart-t" class="bart bart-t" style="fill:#DC1F26;" d="M782.362,230.168c-3.443-2.662-9.14-1.252-12.726,3.15c-10.112,12.419-23.434,21.336-37.51,25.107
		C702.281,266.422,678,248.704,678,218.928V191.87c0.329-0.052,0.662-0.118,1-0.209l54-14.469c4.971-1.332,9-6.441,9-11.412
		s-4.029-7.92-9-6.588l-54,14.469c-0.338,0.091-0.671,0.202-1,0.326v-18.059c0-4.971-4.029-7.92-9-6.589
		c-4.971,1.332-9,6.441-9,11.412v63c0,39.701,32.356,63.331,72.127,52.674c18.746-5.023,36.495-16.908,49.977-33.463
		C785.688,238.56,785.805,232.832,782.362,230.168z" />
</g>
<defs>
    
<filter  filterUnits="objectBoundingBox" width="200%" height="160%" x="-15%" y="-15%" id="bartneon">
<feGaussianBlur  stdDeviation="2" result="blur" in="SourceGraphic"></feGaussianBlur>
<feOffset  result="offsetBlurredAlpha" in="blur" dy="0" dx="0"></feOffset>
<feMerge>
    <feMergeNode  in="offsetBlurredAlpha"></feMergeNode>
    <feMergeNode  in="SourceGraphic"></feMergeNode>
</feMerge>
</filter>    

    <filter id="bartneon2" x="0" y="0" width="200%" height="200%">
      <feOffset result="offOut" in="SourceGraphic" dx="0" dy="0" />
      <feGaussianBlur result="blurOut" in="offOut" stdDeviation="10" />
      <feBlend in="SourceGraphic" in2="blurOut" mode="normal" />
        <feComponentTransfer>
          <feFuncA type="linear" slope="1"/>
        </feComponentTransfer>      
    </filter>
  </defs>
</svg>
